<svg width="27" height="28" viewBox="0 0 27 28" fill="none" xmlns="http://www.w3.org/2000/svg">
<g clip-path="url(#clip0_2470_33430)">
<path d="M7.09395 12.1797L6.83722 12.4365L7.00187 12.76C8.67025 16.0389 11.357 18.7134 14.6333 20.392L14.9573 20.5581L15.2148 20.3006L17.6898 17.8256C17.859 17.6564 18.109 17.6021 18.3216 17.675L18.3216 17.675L18.3269 17.6768C19.6374 18.1097 21.0516 18.3433 22.5 18.3433C22.8426 18.3433 23.125 18.6257 23.125 18.9683V22.8945C23.125 23.2371 22.8426 23.5195 22.5 23.5195C12.2124 23.5195 3.875 15.1821 3.875 4.89453C3.875 4.55192 4.15739 4.26953 4.5 4.26953H8.4375C8.78011 4.26953 9.0625 4.55192 9.0625 4.89453C9.0625 6.35295 9.29566 7.75452 9.72768 9.06366C9.79668 9.28678 9.74568 9.52799 9.56895 9.70473L7.09395 12.1797Z" fill="white" stroke="white"/>
</g>
<defs>
<clipPath id="clip0_2470_33430">
<rect width="27" height="27" fill="white" transform="translate(0 0.394531)"/>
</clipPath>
</defs>
</svg>
