<svg width="27" height="28" viewBox="0 0 27 28" fill="none" xmlns="http://www.w3.org/2000/svg">
<path d="M4.81626 19.8107L4.91508 19.5721L4.77773 19.3534C3.78212 17.7683 3.19922 15.8999 3.19922 13.8924C3.19922 8.20432 7.81098 3.59375 13.4992 3.59375C19.1867 3.59375 23.7992 8.20435 23.7992 13.8924C23.7992 19.5807 19.1865 24.1943 13.4992 24.1943C11.492 24.1943 9.62548 23.61 8.04023 22.6149L7.82154 22.4776L7.583 22.5765L3.75328 24.1635C3.65767 24.2029 3.54932 24.206 3.44666 24.164C3.24158 24.078 3.14591 23.844 3.22974 23.6412C3.22977 23.6411 3.22979 23.6411 3.22981 23.641L4.81626 19.8107ZM8.46453 21.9381L8.46462 21.9381C9.9812 22.8889 11.7225 23.3942 13.4992 23.3942C18.7378 23.3942 22.9991 19.1307 22.9991 13.8924C22.9991 8.65413 18.7376 4.39357 13.4992 4.39357C8.2608 4.39357 3.99931 8.65441 3.99931 13.8924C3.99931 15.6693 4.50222 17.4106 5.45569 18.9275L5.81218 19.4961L4.8001 21.9402L4.33827 23.0554L5.45345 22.5934L7.89585 21.5814L8.46453 21.9381Z" fill="#4EAA97" stroke="white"/>
<path d="M16.9658 17.3588L16.9649 17.3597C16.4593 17.8665 15.6354 17.8675 15.126 17.3592L15.1259 17.359L15.1258 17.359L15.1252 17.3583L15.1224 17.3556L15.1115 17.3447L15.0689 17.3021L14.9074 17.1405L14.3308 16.5639L12.5813 14.814L10.8901 13.1222H10.8907L10.0371 12.2687C9.5293 11.7608 9.5293 10.9383 10.0371 10.4305L10.0372 10.4304L10.8563 9.6111L12.2348 11.9083L11.5564 12.5867L11.2029 12.9402L11.5564 13.2938L14.1008 15.8393L14.4544 16.193L14.808 15.8394L15.4864 15.161L17.7859 16.5407L16.9658 17.3588ZM10.0398 12.2714C10.0398 12.2714 10.0398 12.2714 10.0399 12.2714L10.0398 12.2714ZM9.456 12.3446C8.99112 11.6455 9.06697 10.6935 9.68356 10.0769L10.5911 9.16917L9.456 12.3446Z" fill="white" stroke="white"/>
</svg>
